<svg width="30" height="30" viewBox="0 0 30 30" fill="none" xmlns="http://www.w3.org/2000/svg">
<path fill-rule="evenodd" clip-rule="evenodd" d="M1.5625 15C1.5625 7.60723 7.60723 1.5625 15 1.5625C22.3928 1.5625 28.4375 7.60723 28.4375 15C28.4375 22.3928 22.3928 28.4375 15 28.4375C7.60723 28.4375 1.5625 22.3928 1.5625 15ZM15 3.4375C8.64277 3.4375 3.4375 8.64277 3.4375 15C3.4375 21.3572 8.64277 26.5625 15 26.5625C21.3572 26.5625 26.5625 21.3572 26.5625 15C26.5625 8.64277 21.3572 3.4375 15 3.4375Z" fill="#2BE080"/>
<path fill-rule="evenodd" clip-rule="evenodd" d="M20.976 10.8001C21.3418 11.1665 21.3413 11.7601 20.9748 12.1259L13.8873 19.2009C13.5211 19.5665 12.928 19.5662 12.5621 19.2003L9.02459 15.6628C8.65847 15.2967 8.65847 14.7031 9.02459 14.337C9.3907 13.9709 9.9843 13.9709 10.3504 14.337L13.2256 17.2122L19.6502 10.7989C20.0166 10.4331 20.6102 10.4336 20.976 10.8001Z" fill="#2BE080"/>
</svg>
